solid alap_Default_sldprt
   facet normal -9.775570e-01 -0.000000e+00 -2.106713e-01
      outer loop
         vertex 1.274797e+02 0.000000e+00 4.503175e+02
         vertex 1.274797e+02 -2.500000e+01 4.503175e+02
         vertex 1.273904e+02 0.000000e+00 4.507321e+02
      endloop
   endfacet
   facet normal -9.775570e-01 -0.000000e+00 -2.106713e-01
      outer loop
         vertex 1.273904e+02 0.000000e+00 4.507321e+02
         vertex 1.274797e+02 -2.500000e+01 4.503175e+02
         vertex 1.273904e+02 -2.500000e+01 4.507321e+02
      endloop
   endfacet
   facet normal -9.278890e-01 -0.000000e+00 -3.728565e-01
      outer loop
         vertex 1.273904e+02 0.000000e+00 4.507321e+02
         vertex 1.273904e+02 -2.500000e+01 4.507321e+02
         vertex 1.272323e+02 0.000000e+00 4.511255e+02
      endloop
   endfacet
   facet normal -9.278890e-01 -0.000000e+00 -3.728565e-01
      outer loop
         vertex 1.272323e+02 0.000000e+00 4.511255e+02
         vertex 1.273904e+02 -2.500000e+01 4.507321e+02
         vertex 1.272323e+02 -2.500000e+01 4.511255e+02
      endloop
   endfacet
   facet normal -8.515328e-01 -0.000000e+00 -5.243013e-01
      outer loop
         vertex 1.272323e+02 0.000000e+00 4.511255e+02
         vertex 1.272323e+02 -2.500000e+01 4.511255e+02
         vertex 1.270100e+02 0.000000e+00 4.514866e+02
      endloop
   endfacet
   facet normal -8.515328e-01 -0.000000e+00 -5.243013e-01
      outer loop
         vertex 1.270100e+02 0.000000e+00 4.514866e+02
         vertex 1.272323e+02 -2.500000e+01 4.511255e+02
         vertex 1.270100e+02 -2.500000e+01 4.514866e+02
      endloop
   endfacet
   facet normal -7.506577e-01 -0.000000e+00 -6.606913e-01
      outer loop
         vertex 1.270100e+02 0.000000e+00 4.514866e+02
         vertex 1.270100e+02 -2.500000e+01 4.514866e+02
         vertex 1.267298e+02 0.000000e+00 4.518049e+02
      endloop
   endfacet
   facet normal -7.506577e-01 -0.000000e+00 -6.606913e-01
      outer loop
         vertex 1.267298e+02 0.000000e+00 4.518049e+02
         vertex 1.270100e+02 -2.500000e+01 4.514866e+02
         vertex 1.267298e+02 -2.500000e+01 4.518049e+02
      endloop
   endfacet
   facet normal -6.282455e-01 -0.000000e+00 -7.780152e-01
      outer loop
         vertex 1.267298e+02 0.000000e+00 4.518049e+02
         vertex 1.267298e+02 -2.500000e+01 4.518049e+02
         vertex 1.263999e+02 0.000000e+00 4.520713e+02
      endloop
   endfacet
   facet normal -6.282455e-01 -0.000000e+00 -7.780152e-01
      outer loop
         vertex 1.263999e+02 0.000000e+00 4.520713e+02
         vertex 1.267298e+02 -2.500000e+01 4.518049e+02
         vertex 1.263999e+02 -2.500000e+01 4.520713e+02
      endloop
   endfacet
   facet normal -4.877064e-01 -0.000000e+00 -8.730077e-01
      outer loop
         vertex 1.263999e+02 0.000000e+00 4.520713e+02
         vertex 1.263999e+02 -2.500000e+01 4.520713e+02
         vertex 1.260298e+02 0.000000e+00 4.522781e+02
      endloop
   endfacet
   facet normal -4.877064e-01 -0.000000e+00 -8.730077e-01
      outer loop
         vertex 1.260298e+02 0.000000e+00 4.522781e+02
         vertex 1.263999e+02 -2.500000e+01 4.520713e+02
         vertex 1.260298e+02 -2.500000e+01 4.522781e+02
      endloop
   endfacet
   facet normal -3.331399e-01 -0.000000e+00 -9.428774e-01
      outer loop
         vertex 1.260298e+02 0.000000e+00 4.522781e+02
         vertex 1.260298e+02 -2.500000e+01 4.522781e+02
         vertex 1.256299e+02 0.000000e+00 4.524193e+02
      endloop
   endfacet
   facet normal -3.331399e-01 -0.000000e+00 -9.428774e-01
      outer loop
         vertex 1.256299e+02 0.000000e+00 4.524193e+02
         vertex 1.260298e+02 -2.500000e+01 4.522781e+02
         vertex 1.256299e+02 -2.500000e+01 4.524193e+02
      endloop
   endfacet
   facet normal -1.689619e-01 -0.000000e+00 -9.856226e-01
      outer loop
         vertex 1.256299e+02 0.000000e+00 4.524193e+02
         vertex 1.256299e+02 -2.500000e+01 4.524193e+02
         vertex 1.252120e+02 0.000000e+00 4.524910e+02
      endloop
   endfacet
   facet normal -1.689619e-01 -0.000000e+00 -9.856226e-01
      outer loop
         vertex 1.252120e+02 0.000000e+00 4.524910e+02
         vertex 1.256299e+02 -2.500000e+01 4.524193e+02
         vertex 1.252120e+02 -2.500000e+01 4.524910e+02
      endloop
   endfacet
   facet normal -4.241330e-02 -0.000000e+00 -9.991002e-01
      outer loop
         vertex 1.252120e+02 0.000000e+00 4.524910e+02
         vertex 1.252120e+02 -2.500000e+01 4.524910e+02
         vertex 1.250000e+02 0.000000e+00 4.525000e+02
      endloop
   endfacet
   facet normal 0.000000e+00 3.600120e-04 -9.999999e-01
      outer loop
         vertex 1.250000e+02 0.000000e+00 4.525000e+02
         vertex 1.252120e+02 -2.500000e+01 4.524910e+02
         vertex 1.247880e+02 -2.500000e+01 4.524910e+02
      endloop
   endfacet
   facet normal 4.241330e-02 0.000000e+00 -9.991002e-01
      outer loop
         vertex 1.250000e+02 0.000000e+00 4.525000e+02
         vertex 1.247880e+02 -2.500000e+01 4.524910e+02
         vertex 1.247880e+02 0.000000e+00 4.524910e+02
      endloop
   endfacet
   facet normal 1.689619e-01 0.000000e+00 -9.856226e-01
      outer loop
         vertex 1.247880e+02 0.000000e+00 4.524910e+02
         vertex 1.247880e+02 -2.500000e+01 4.524910e+02
         vertex 1.243701e+02 0.000000e+00 4.524193e+02
      endloop
   endfacet
   facet normal 1.689619e-01 0.000000e+00 -9.856226e-01
      outer loop
         vertex 1.243701e+02 0.000000e+00 4.524193e+02
         vertex 1.247880e+02 -2.500000e+01 4.524910e+02
         vertex 1.243701e+02 -2.500000e+01 4.524193e+02
      endloop
   endfacet
   facet normal 3.331455e-01 0.000000e+00 -9.428754e-01
      outer loop
         vertex 1.243701e+02 0.000000e+00 4.524193e+02
         vertex 1.243701e+02 -2.500000e+01 4.524193e+02
         vertex 1.239702e+02 0.000000e+00 4.522781e+02
      endloop
   endfacet
   facet normal 3.331455e-01 0.000000e+00 -9.428754e-01
      outer loop
         vertex 1.239702e+02 0.000000e+00 4.522781e+02
         vertex 1.243701e+02 -2.500000e+01 4.524193e+02
         vertex 1.239702e+02 -2.500000e+01 4.522781e+02
      endloop
   endfacet
   facet normal 4.876989e-01 0.000000e+00 -8.730119e-01
      outer loop
         vertex 1.239702e+02 0.000000e+00 4.522781e+02
         vertex 1.239702e+02 -2.500000e+01 4.522781e+02
         vertex 1.236001e+02 0.000000e+00 4.520713e+02
      endloop
   endfacet
   facet normal 4.876989e-01 0.000000e+00 -8.730119e-01
      outer loop
         vertex 1.236001e+02 0.000000e+00 4.520713e+02
         vertex 1.239702e+02 -2.500000e+01 4.522781e+02
         vertex 1.236001e+02 -2.500000e+01 4.520713e+02
      endloop
   endfacet
   facet normal 6.282455e-01 0.000000e+00 -7.780152e-01
      outer loop
         vertex 1.236001e+02 0.000000e+00 4.520713e+02
         vertex 1.236001e+02 -2.500000e+01 4.520713e+02
         vertex 1.232702e+02 0.000000e+00 4.518049e+02
      endloop
   endfacet
   facet normal 6.282455e-01 0.000000e+00 -7.780152e-01
      outer loop
         vertex 1.232702e+02 0.000000e+00 4.518049e+02
         vertex 1.236001e+02 -2.500000e+01 4.520713e+02
         vertex 1.232702e+02 -2.500000e+01 4.518049e+02
      endloop
   endfacet
   facet normal 7.506490e-01 0.000000e+00 -6.607012e-01
      outer loop
         vertex 1.232702e+02 0.000000e+00 4.518049e+02
         vertex 1.232702e+02 -2.500000e+01 4.518049e+02
         vertex 1.229900e+02 0.000000e+00 4.514866e+02
      endloop
   endfacet
   facet normal 7.506490e-01 0.000000e+00 -6.607012e-01
      outer loop
         vertex 1.229900e+02 0.000000e+00 4.514866e+02
         vertex 1.232702e+02 -2.500000e+01 4.518049e+02
         vertex 1.229900e+02 -2.500000e+01 4.514866e+02
      endloop
   endfacet
   facet normal 8.515407e-01 0.000000e+00 -5.242886e-01
      outer loop
         vertex 1.229900e+02 0.000000e+00 4.514866e+02
         vertex 1.229900e+02 -2.500000e+01 4.514866e+02
         vertex 1.227677e+02 0.000000e+00 4.511255e+02
      endloop
   endfacet
   facet normal 8.515407e-01 0.000000e+00 -5.242886e-01
      outer loop
         vertex 1.227677e+02 0.000000e+00 4.511255e+02
         vertex 1.229900e+02 -2.500000e+01 4.514866e+02
         vertex 1.227677e+02 -2.500000e+01 4.511255e+02
      endloop
   endfacet
   facet normal 9.278890e-01 0.000000e+00 -3.728565e-01
      outer loop
         vertex 1.227677e+02 0.000000e+00 4.511255e+02
         vertex 1.227677e+02 -2.500000e+01 4.511255e+02
         vertex 1.226096e+02 0.000000e+00 4.507321e+02
      endloop
   endfacet
   facet normal 9.278890e-01 0.000000e+00 -3.728565e-01
      outer loop
         vertex 1.226096e+02 0.000000e+00 4.507321e+02
         vertex 1.227677e+02 -2.500000e+01 4.511255e+02
         vertex 1.226096e+02 -2.500000e+01 4.507321e+02
      endloop
   endfacet
   facet normal 9.775533e-01 0.000000e+00 -2.106881e-01
      outer loop
         vertex 1.226096e+02 0.000000e+00 4.507321e+02
         vertex 1.226096e+02 -2.500000e+01 4.507321e+02
         vertex 1.225202e+02 0.000000e+00 4.503175e+02
      endloop
   endfacet
   facet normal 9.775533e-01 0.000000e+00 -2.106881e-01
      outer loop
         vertex 1.225202e+02 0.000000e+00 4.503175e+02
         vertex 1.226096e+02 -2.500000e+01 4.507321e+02
         vertex 1.225202e+02 -2.500000e+01 4.503175e+02
      endloop
   endfacet
   facet normal 9.990993e-01 0.000000e+00 -4.243448e-02
      outer loop
         vertex 1.225202e+02 0.000000e+00 4.503175e+02
         vertex 1.225202e+02 -2.500000e+01 4.503175e+02
         vertex 1.225023e+02 0.000000e+00 4.498939e+02
      endloop
   endfacet
   facet normal 9.990993e-01 0.000000e+00 -4.243448e-02
      outer loop
         vertex 1.225023e+02 0.000000e+00 4.498939e+02
         vertex 1.225202e+02 -2.500000e+01 4.503175e+02
         vertex 1.225023e+02 -2.500000e+01 4.498939e+02
      endloop
   endfacet
   facet normal 9.919003e-01 0.000000e+00 1.270185e-01
      outer loop
         vertex 1.225023e+02 0.000000e+00 4.498939e+02
         vertex 1.225023e+02 -2.500000e+01 4.498939e+02
         vertex 1.225561e+02 0.000000e+00 4.494733e+02
      endloop
   endfacet
   facet normal 9.919003e-01 0.000000e+00 1.270185e-01
      outer loop
         vertex 1.225561e+02 0.000000e+00 4.494733e+02
         vertex 1.225023e+02 -2.500000e+01 4.498939e+02
         vertex 1.225561e+02 -2.500000e+01 4.494733e+02
      endloop
   endfacet
   facet normal 9.561653e-01 0.000000e+00 2.928274e-01
      outer loop
         vertex 1.225561e+02 0.000000e+00 4.494733e+02
         vertex 1.225561e+02 -2.500000e+01 4.494733e+02
         vertex 1.226803e+02 0.000000e+00 4.490679e+02
      endloop
   endfacet
   facet normal 9.561653e-01 0.000000e+00 2.928274e-01
      outer loop
         vertex 1.226803e+02 0.000000e+00 4.490679e+02
         vertex 1.225561e+02 -2.500000e+01 4.494733e+02
         vertex 1.226803e+02 -2.500000e+01 4.490679e+02
      endloop
   endfacet
   facet normal 8.929322e-01 0.000000e+00 4.501911e-01
      outer loop
         vertex 1.226803e+02 0.000000e+00 4.490679e+02
         vertex 1.226803e+02 -2.500000e+01 4.490679e+02
         vertex 1.228712e+02 0.000000e+00 4.486892e+02
      endloop
   endfacet
   facet normal 8.929322e-01 0.000000e+00 4.501911e-01
      outer loop
         vertex 1.228712e+02 0.000000e+00 4.486892e+02
         vertex 1.226803e+02 -2.500000e+01 4.490679e+02
         vertex 1.228712e+02 -2.500000e+01 4.486892e+02
      endloop
   endfacet
   facet normal 8.039884e-01 0.000000e+00 5.946450e-01
      outer loop
         vertex 1.228712e+02 0.000000e+00 4.486892e+02
         vertex 1.228712e+02 -2.500000e+01 4.486892e+02
         vertex 1.231233e+02 0.000000e+00 4.483483e+02
      endloop
   endfacet
   facet normal 8.039884e-01 0.000000e+00 5.946450e-01
      outer loop
         vertex 1.231233e+02 0.000000e+00 4.483483e+02
         vertex 1.228712e+02 -2.500000e+01 4.486892e+02
         vertex 1.231233e+02 -2.500000e+01 4.483483e+02
      endloop
   endfacet
   facet normal 6.919420e-01 0.000000e+00 7.219531e-01
      outer loop
         vertex 1.231233e+02 0.000000e+00 4.483483e+02
         vertex 1.231233e+02 -2.500000e+01 4.483483e+02
         vertex 1.234294e+02 0.000000e+00 4.480549e+02
      endloop
   endfacet
   facet normal 6.919420e-01 0.000000e+00 7.219531e-01
      outer loop
         vertex 1.234294e+02 0.000000e+00 4.480549e+02
         vertex 1.231233e+02 -2.500000e+01 4.483483e+02
         vertex 1.234294e+02 -2.500000e+01 4.480549e+02
      endloop
   endfacet
   facet normal 5.599523e-01 0.000000e+00 8.285249e-01
      outer loop
         vertex 1.234294e+02 0.000000e+00 4.480549e+02
         vertex 1.234294e+02 -2.500000e+01 4.480549e+02
         vertex 1.237808e+02 0.000000e+00 4.478175e+02
      endloop
   endfacet
   facet normal 5.599523e-01 0.000000e+00 8.285249e-01
      outer loop
         vertex 1.237808e+02 0.000000e+00 4.478175e+02
         vertex 1.234294e+02 -2.500000e+01 4.480549e+02
         vertex 1.237808e+02 -2.500000e+01 4.478175e+02
      endloop
   endfacet
   facet normal 4.119275e-01 0.000000e+00 9.112166e-01
      outer loop
         vertex 1.237808e+02 0.000000e+00 4.478175e+02
         vertex 1.237808e+02 -2.500000e+01 4.478175e+02
         vertex 1.241672e+02 0.000000e+00 4.476428e+02
      endloop
   endfacet
   facet normal 4.119275e-01 0.000000e+00 9.112166e-01
      outer loop
         vertex 1.241672e+02 0.000000e+00 4.476428e+02
         vertex 1.237808e+02 -2.500000e+01 4.478175e+02
         vertex 1.241672e+02 -2.500000e+01 4.476428e+02
      endloop
   endfacet
   facet normal 2.519670e-01 0.000000e+00 9.677358e-01
      outer loop
         vertex 1.241672e+02 0.000000e+00 4.476428e+02
         vertex 1.241672e+02 -2.500000e+01 4.476428e+02
         vertex 1.245775e+02 0.000000e+00 4.475360e+02
      endloop
   endfacet
   facet normal 2.519670e-01 0.000000e+00 9.677358e-01
      outer loop
         vertex 1.245775e+02 0.000000e+00 4.475360e+02
         vertex 1.241672e+02 -2.500000e+01 4.476428e+02
         vertex 1.245775e+02 -2.500000e+01 4.475360e+02
      endloop
   endfacet
   facet normal 8.483249e-02 0.000000e+00 9.963952e-01
      outer loop
         vertex 1.245775e+02 0.000000e+00 4.475360e+02
         vertex 1.245775e+02 -2.500000e+01 4.475360e+02
         vertex 1.250000e+02 0.000000e+00 4.475000e+02
      endloop
   endfacet
   facet normal 8.483249e-02 0.000000e+00 9.963952e-01
      outer loop
         vertex 1.250000e+02 0.000000e+00 4.475000e+02
         vertex 1.245775e+02 -2.500000e+01 4.475360e+02
         vertex 1.250000e+02 -2.500000e+01 4.475000e+02
      endloop
   endfacet
   facet normal -8.483101e-02 0.000000e+00 9.963954e-01
      outer loop
         vertex 1.250000e+02 0.000000e+00 4.475000e+02
         vertex 1.250000e+02 -2.500000e+01 4.475000e+02
         vertex 1.254225e+02 0.000000e+00 4.475360e+02
      endloop
   endfacet
   facet normal -8.483101e-02 0.000000e+00 9.963954e-01
      outer loop
         vertex 1.254225e+02 0.000000e+00 4.475360e+02
         vertex 1.250000e+02 -2.500000e+01 4.475000e+02
         vertex 1.254225e+02 -2.500000e+01 4.475360e+02
      endloop
   endfacet
   facet normal -2.519670e-01 0.000000e+00 9.677358e-01
      outer loop
         vertex 1.254225e+02 0.000000e+00 4.475360e+02
         vertex 1.254225e+02 -2.500000e+01 4.475360e+02
         vertex 1.258329e+02 0.000000e+00 4.476428e+02
      endloop
   endfacet
   facet normal -2.519670e-01 0.000000e+00 9.677358e-01
      outer loop
         vertex 1.258329e+02 0.000000e+00 4.476428e+02
         vertex 1.254225e+02 -2.500000e+01 4.475360e+02
         vertex 1.258329e+02 -2.500000e+01 4.476428e+02
      endloop
   endfacet
   facet normal -4.119275e-01 0.000000e+00 9.112166e-01
      outer loop
         vertex 1.258329e+02 0.000000e+00 4.476428e+02
         vertex 1.258329e+02 -2.500000e+01 4.476428e+02
         vertex 1.262192e+02 0.000000e+00 4.478175e+02
      endloop
   endfacet
   facet normal -4.119275e-01 0.000000e+00 9.112166e-01
      outer loop
         vertex 1.262192e+02 0.000000e+00 4.478175e+02
         vertex 1.258329e+02 -2.500000e+01 4.476428e+02
         vertex 1.262192e+02 -2.500000e+01 4.478175e+02
      endloop
   endfacet
   facet normal -5.599604e-01 0.000000e+00 8.285193e-01
      outer loop
         vertex 1.262192e+02 0.000000e+00 4.478175e+02
         vertex 1.262192e+02 -2.500000e+01 4.478175e+02
         vertex 1.265706e+02 0.000000e+00 4.480549e+02
      endloop
   endfacet
   facet normal -5.599604e-01 0.000000e+00 8.285193e-01
      outer loop
         vertex 1.265706e+02 0.000000e+00 4.480549e+02
         vertex 1.262192e+02 -2.500000e+01 4.478175e+02
         vertex 1.265706e+02 -2.500000e+01 4.480549e+02
      endloop
   endfacet
   facet normal -6.919420e-01 0.000000e+00 7.219531e-01
      outer loop
         vertex 1.265706e+02 0.000000e+00 4.480549e+02
         vertex 1.265706e+02 -2.500000e+01 4.480549e+02
         vertex 1.268767e+02 0.000000e+00 4.483483e+02
      endloop
   endfacet
   facet normal -6.919420e-01 0.000000e+00 7.219531e-01
      outer loop
         vertex 1.268767e+02 0.000000e+00 4.483483e+02
         vertex 1.265706e+02 -2.500000e+01 4.480549e+02
         vertex 1.268767e+02 -2.500000e+01 4.483483e+02
      endloop
   endfacet
   facet normal -8.039884e-01 0.000000e+00 5.946450e-01
      outer loop
         vertex 1.268767e+02 0.000000e+00 4.483483e+02
         vertex 1.268767e+02 -2.500000e+01 4.483483e+02
         vertex 1.271288e+02 0.000000e+00 4.486892e+02
      endloop
   endfacet
   facet normal -8.039884e-01 0.000000e+00 5.946450e-01
      outer loop
         vertex 1.271288e+02 0.000000e+00 4.486892e+02
         vertex 1.268767e+02 -2.500000e+01 4.483483e+02
         vertex 1.271288e+02 -2.500000e+01 4.486892e+02
      endloop
   endfacet
   facet normal -8.929322e-01 0.000000e+00 4.501911e-01
      outer loop
         vertex 1.271288e+02 0.000000e+00 4.486892e+02
         vertex 1.271288e+02 -2.500000e+01 4.486892e+02
         vertex 1.273197e+02 0.000000e+00 4.490679e+02
      endloop
   endfacet
   facet normal -8.929322e-01 0.000000e+00 4.501911e-01
      outer loop
         vertex 1.273197e+02 0.000000e+00 4.490679e+02
         vertex 1.271288e+02 -2.500000e+01 4.486892e+02
         vertex 1.273197e+02 -2.500000e+01 4.490679e+02
      endloop
   endfacet
   facet normal -9.561604e-01 0.000000e+00 2.928435e-01
      outer loop
         vertex 1.273197e+02 0.000000e+00 4.490679e+02
         vertex 1.273197e+02 -2.500000e+01 4.490679e+02
         vertex 1.274439e+02 0.000000e+00 4.494733e+02
      endloop
   endfacet
   facet normal -9.561604e-01 0.000000e+00 2.928435e-01
      outer loop
         vertex 1.274439e+02 0.000000e+00 4.494733e+02
         vertex 1.273197e+02 -2.500000e+01 4.490679e+02
         vertex 1.274439e+02 -2.500000e+01 4.494733e+02
      endloop
   endfacet
   facet normal -9.919026e-01 0.000000e+00 1.270012e-01
      outer loop
         vertex 1.274439e+02 0.000000e+00 4.494733e+02
         vertex 1.274439e+02 -2.500000e+01 4.494733e+02
         vertex 1.274977e+02 0.000000e+00 4.498939e+02
      endloop
   endfacet
   facet normal -9.919026e-01 0.000000e+00 1.270012e-01
      outer loop
         vertex 1.274977e+02 0.000000e+00 4.498939e+02
         vertex 1.274439e+02 -2.500000e+01 4.494733e+02
         vertex 1.274977e+02 -2.500000e+01 4.498939e+02
      endloop
   endfacet
   facet normal -9.990985e-01 -0.000000e+00 -4.245202e-02
      outer loop
         vertex 1.274977e+02 0.000000e+00 4.498939e+02
         vertex 1.274977e+02 -2.500000e+01 4.498939e+02
         vertex 1.274797e+02 0.000000e+00 4.503175e+02
      endloop
   endfacet
   facet normal -9.997746e-01 -1.079161e-03 2.120309e-02
      outer loop
         vertex 1.274797e+02 0.000000e+00 4.503175e+02
         vertex 1.274977e+02 -2.500000e+01 4.498939e+02
         vertex 1.275000e+02 -2.500000e+01 4.500000e+02
      endloop
   endfacet
   facet normal -9.979727e-01 -0.000000e+00 -6.364359e-02
      outer loop
         vertex 1.274797e+02 0.000000e+00 4.503175e+02
         vertex 1.275000e+02 -2.500000e+01 4.500000e+02
         vertex 1.274797e+02 -2.500000e+01 4.503175e+02
      endloop
   endfacet
   facet normal 0.000000e+00 1.000000e+00 -0.000000e+00
      outer loop
         vertex 1.247880e+02 0.000000e+00 4.524910e+02
         vertex 6.245005e-14 0.000000e+00 5.000000e+02
         vertex 1.250000e+02 0.000000e+00 4.525000e+02
      endloop
   endfacet
   facet normal 0.000000e+00 1.000000e+00 -0.000000e+00
      outer loop
         vertex 1.250000e+02 0.000000e+00 4.525000e+02
         vertex 6.245005e-14 0.000000e+00 5.000000e+02
         vertex 2.500000e+02 0.000000e+00 5.000000e+02
      endloop
   endfacet
   facet normal -0.000000e+00 1.000000e+00 0.000000e+00
      outer loop
         vertex 1.250000e+02 0.000000e+00 4.525000e+02
         vertex 2.500000e+02 0.000000e+00 5.000000e+02
         vertex 1.252120e+02 0.000000e+00 4.524910e+02
      endloop
   endfacet
   facet normal -0.000000e+00 1.000000e+00 0.000000e+00
      outer loop
         vertex 1.252120e+02 0.000000e+00 4.524910e+02
         vertex 2.500000e+02 0.000000e+00 5.000000e+02
         vertex 1.256299e+02 0.000000e+00 4.524193e+02
      endloop
   endfacet
   facet normal 0.000000e+00 1.000000e+00 0.000000e+00
      outer loop
         vertex 1.247880e+02 0.000000e+00 4.524910e+02
         vertex 1.243701e+02 0.000000e+00 4.524193e+02
         vertex 6.245005e-14 0.000000e+00 5.000000e+02
      endloop
   endfacet
   facet normal 0.000000e+00 1.000000e+00 0.000000e+00
      outer loop
         vertex 6.245005e-14 0.000000e+00 5.000000e+02
         vertex 1.243701e+02 0.000000e+00 4.524193e+02
         vertex 1.239702e+02 0.000000e+00 4.522781e+02
      endloop
   endfacet
   facet normal 0.000000e+00 1.000000e+00 0.000000e+00
      outer loop
         vertex 6.245005e-14 0.000000e+00 5.000000e+02
         vertex 1.239702e+02 0.000000e+00 4.522781e+02
         vertex 1.236001e+02 0.000000e+00 4.520713e+02
      endloop
   endfacet
   facet normal 0.000000e+00 1.000000e+00 -0.000000e+00
      outer loop
         vertex 1.267298e+02 0.000000e+00 4.518049e+02
         vertex 1.263999e+02 0.000000e+00 4.520713e+02
         vertex 2.500000e+02 0.000000e+00 5.000000e+02
      endloop
   endfacet
   facet normal 0.000000e+00 1.000000e+00 0.000000e+00
      outer loop
         vertex 2.500000e+02 0.000000e+00 5.000000e+02
         vertex 1.263999e+02 0.000000e+00 4.520713e+02
         vertex 1.260298e+02 0.000000e+00 4.522781e+02
      endloop
   endfacet
   facet normal 0.000000e+00 1.000000e+00 0.000000e+00
      outer loop
         vertex 2.500000e+02 0.000000e+00 5.000000e+02
         vertex 1.260298e+02 0.000000e+00 4.522781e+02
         vertex 1.256299e+02 0.000000e+00 4.524193e+02
      endloop
   endfacet
   facet normal 0.000000e+00 1.000000e+00 0.000000e+00
      outer loop
         vertex 1.250000e+02 0.000000e+00 4.475000e+02
         vertex 2.500000e+02 0.000000e+00 0.000000e+00
         vertex 1.245775e+02 0.000000e+00 4.475360e+02
      endloop
   endfacet
   facet normal 0.000000e+00 1.000000e+00 0.000000e+00
      outer loop
         vertex 1.245775e+02 0.000000e+00 4.475360e+02
         vertex 2.500000e+02 0.000000e+00 0.000000e+00
         vertex 5.551115e-14 0.000000e+00 0.000000e+00
      endloop
   endfacet
   facet normal 0.000000e+00 1.000000e+00 0.000000e+00
      outer loop
         vertex 1.245775e+02 0.000000e+00 4.475360e+02
         vertex 5.551115e-14 0.000000e+00 0.000000e+00
         vertex 1.241672e+02 0.000000e+00 4.476428e+02
      endloop
   endfacet
   facet normal 0.000000e+00 1.000000e+00 0.000000e+00
      outer loop
         vertex 1.265706e+02 0.000000e+00 4.480549e+02
         vertex 1.268767e+02 0.000000e+00 4.483483e+02
         vertex 2.500000e+02 0.000000e+00 5.000000e+02
      endloop
   endfacet
   facet normal 0.000000e+00 1.000000e+00 0.000000e+00
      outer loop
         vertex 1.268767e+02 0.000000e+00 4.483483e+02
         vertex 1.271288e+02 0.000000e+00 4.486892e+02
         vertex 2.500000e+02 0.000000e+00 5.000000e+02
      endloop
   endfacet
   facet normal 0.000000e+00 1.000000e+00 0.000000e+00
      outer loop
         vertex 2.500000e+02 0.000000e+00 5.000000e+02
         vertex 1.271288e+02 0.000000e+00 4.486892e+02
         vertex 1.273197e+02 0.000000e+00 4.490679e+02
      endloop
   endfacet
   facet normal 0.000000e+00 1.000000e+00 0.000000e+00
      outer loop
         vertex 2.500000e+02 0.000000e+00 5.000000e+02
         vertex 1.273197e+02 0.000000e+00 4.490679e+02
         vertex 1.274439e+02 0.000000e+00 4.494733e+02
      endloop
   endfacet
   facet normal 0.000000e+00 1.000000e+00 0.000000e+00
      outer loop
         vertex 1.274439e+02 0.000000e+00 4.494733e+02
         vertex 1.274977e+02 0.000000e+00 4.498939e+02
         vertex 2.500000e+02 0.000000e+00 5.000000e+02
      endloop
   endfacet
   facet normal 0.000000e+00 1.000000e+00 0.000000e+00
      outer loop
         vertex 2.500000e+02 0.000000e+00 5.000000e+02
         vertex 1.274977e+02 0.000000e+00 4.498939e+02
         vertex 1.274797e+02 0.000000e+00 4.503175e+02
      endloop
   endfacet
   facet normal 0.000000e+00 1.000000e+00 0.000000e+00
      outer loop
         vertex 2.500000e+02 0.000000e+00 5.000000e+02
         vertex 1.274797e+02 0.000000e+00 4.503175e+02
         vertex 1.273904e+02 0.000000e+00 4.507321e+02
      endloop
   endfacet
   facet normal 0.000000e+00 1.000000e+00 -0.000000e+00
      outer loop
         vertex 1.273904e+02 0.000000e+00 4.507321e+02
         vertex 1.272323e+02 0.000000e+00 4.511255e+02
         vertex 2.500000e+02 0.000000e+00 5.000000e+02
      endloop
   endfacet
   facet normal 0.000000e+00 1.000000e+00 0.000000e+00
      outer loop
         vertex 2.500000e+02 0.000000e+00 5.000000e+02
         vertex 1.272323e+02 0.000000e+00 4.511255e+02
         vertex 1.270100e+02 0.000000e+00 4.514866e+02
      endloop
   endfacet
   facet normal 0.000000e+00 1.000000e+00 0.000000e+00
      outer loop
         vertex 2.500000e+02 0.000000e+00 5.000000e+02
         vertex 1.270100e+02 0.000000e+00 4.514866e+02
         vertex 1.267298e+02 0.000000e+00 4.518049e+02
      endloop
   endfacet
   facet normal -0.000000e+00 1.000000e+00 0.000000e+00
      outer loop
         vertex 1.250000e+02 0.000000e+00 4.475000e+02
         vertex 1.254225e+02 0.000000e+00 4.475360e+02
         vertex 2.500000e+02 0.000000e+00 0.000000e+00
      endloop
   endfacet
   facet normal 0.000000e+00 1.000000e+00 0.000000e+00
      outer loop
         vertex 2.500000e+02 0.000000e+00 0.000000e+00
         vertex 1.254225e+02 0.000000e+00 4.475360e+02
         vertex 1.258329e+02 0.000000e+00 4.476428e+02
      endloop
   endfacet
   facet normal 0.000000e+00 1.000000e+00 -0.000000e+00
      outer loop
         vertex 2.500000e+02 0.000000e+00 0.000000e+00
         vertex 1.258329e+02 0.000000e+00 4.476428e+02
         vertex 2.500000e+02 0.000000e+00 5.000000e+02
      endloop
   endfacet
   facet normal 0.000000e+00 1.000000e+00 0.000000e+00
      outer loop
         vertex 2.500000e+02 0.000000e+00 5.000000e+02
         vertex 1.258329e+02 0.000000e+00 4.476428e+02
         vertex 1.262192e+02 0.000000e+00 4.478175e+02
      endloop
   endfacet
   facet normal 0.000000e+00 1.000000e+00 0.000000e+00
      outer loop
         vertex 2.500000e+02 0.000000e+00 5.000000e+02
         vertex 1.262192e+02 0.000000e+00 4.478175e+02
         vertex 1.265706e+02 0.000000e+00 4.480549e+02
      endloop
   endfacet
   facet normal 0.000000e+00 1.000000e+00 0.000000e+00
      outer loop
         vertex 1.236001e+02 0.000000e+00 4.520713e+02
         vertex 1.232702e+02 0.000000e+00 4.518049e+02
         vertex 6.245005e-14 0.000000e+00 5.000000e+02
      endloop
   endfacet
   facet normal 0.000000e+00 1.000000e+00 0.000000e+00
      outer loop
         vertex 6.245005e-14 0.000000e+00 5.000000e+02
         vertex 1.232702e+02 0.000000e+00 4.518049e+02
         vertex 1.229900e+02 0.000000e+00 4.514866e+02
      endloop
   endfacet
   facet normal 0.000000e+00 1.000000e+00 0.000000e+00
      outer loop
         vertex 6.245005e-14 0.000000e+00 5.000000e+02
         vertex 1.229900e+02 0.000000e+00 4.514866e+02
         vertex 1.227677e+02 0.000000e+00 4.511255e+02
      endloop
   endfacet
   facet normal 0.000000e+00 1.000000e+00 0.000000e+00
      outer loop
         vertex 1.225023e+02 0.000000e+00 4.498939e+02
         vertex 1.225561e+02 0.000000e+00 4.494733e+02
         vertex 6.245005e-14 0.000000e+00 5.000000e+02
      endloop
   endfacet
   facet normal 0.000000e+00 1.000000e+00 0.000000e+00
      outer loop
         vertex 6.245005e-14 0.000000e+00 5.000000e+02
         vertex 1.225561e+02 0.000000e+00 4.494733e+02
         vertex 1.226803e+02 0.000000e+00 4.490679e+02
      endloop
   endfacet
   facet normal 0.000000e+00 1.000000e+00 0.000000e+00
      outer loop
         vertex 6.245005e-14 0.000000e+00 5.000000e+02
         vertex 1.226803e+02 0.000000e+00 4.490679e+02
         vertex 5.551115e-14 0.000000e+00 0.000000e+00
      endloop
   endfacet
   facet normal 0.000000e+00 1.000000e+00 0.000000e+00
      outer loop
         vertex 5.551115e-14 0.000000e+00 0.000000e+00
         vertex 1.226803e+02 0.000000e+00 4.490679e+02
         vertex 1.228712e+02 0.000000e+00 4.486892e+02
      endloop
   endfacet
   facet normal 0.000000e+00 1.000000e+00 0.000000e+00
      outer loop
         vertex 5.551115e-14 0.000000e+00 0.000000e+00
         vertex 1.228712e+02 0.000000e+00 4.486892e+02
         vertex 1.231233e+02 0.000000e+00 4.483483e+02
      endloop
   endfacet
   facet normal 0.000000e+00 1.000000e+00 0.000000e+00
      outer loop
         vertex 1.231233e+02 0.000000e+00 4.483483e+02
         vertex 1.234294e+02 0.000000e+00 4.480549e+02
         vertex 5.551115e-14 0.000000e+00 0.000000e+00
      endloop
   endfacet
   facet normal 0.000000e+00 1.000000e+00 0.000000e+00
      outer loop
         vertex 5.551115e-14 0.000000e+00 0.000000e+00
         vertex 1.234294e+02 0.000000e+00 4.480549e+02
         vertex 1.237808e+02 0.000000e+00 4.478175e+02
      endloop
   endfacet
   facet normal 0.000000e+00 1.000000e+00 0.000000e+00
      outer loop
         vertex 5.551115e-14 0.000000e+00 0.000000e+00
         vertex 1.237808e+02 0.000000e+00 4.478175e+02
         vertex 1.241672e+02 0.000000e+00 4.476428e+02
      endloop
   endfacet
   facet normal 0.000000e+00 1.000000e+00 0.000000e+00
      outer loop
         vertex 1.227677e+02 0.000000e+00 4.511255e+02
         vertex 1.226096e+02 0.000000e+00 4.507321e+02
         vertex 6.245005e-14 0.000000e+00 5.000000e+02
      endloop
   endfacet
   facet normal 0.000000e+00 1.000000e+00 0.000000e+00
      outer loop
         vertex 6.245005e-14 0.000000e+00 5.000000e+02
         vertex 1.226096e+02 0.000000e+00 4.507321e+02
         vertex 1.225202e+02 0.000000e+00 4.503175e+02
      endloop
   endfacet
   facet normal 0.000000e+00 1.000000e+00 0.000000e+00
      outer loop
         vertex 6.245005e-14 0.000000e+00 5.000000e+02
         vertex 1.225202e+02 0.000000e+00 4.503175e+02
         vertex 1.225023e+02 0.000000e+00 4.498939e+02
      endloop
   endfacet
   facet normal 0.000000e+00 -1.000000e+00 0.000000e+00
      outer loop
         vertex 1.236001e+02 -2.500000e+01 4.520713e+02
         vertex 1.239702e+02 -2.500000e+01 4.522781e+02
         vertex 6.245005e-14 -2.500000e+01 5.000000e+02
      endloop
   endfacet
   facet normal 0.000000e+00 -1.000000e+00 0.000000e+00
      outer loop
         vertex 1.239702e+02 -2.500000e+01 4.522781e+02
         vertex 1.243701e+02 -2.500000e+01 4.524193e+02
         vertex 6.245005e-14 -2.500000e+01 5.000000e+02
      endloop
   endfacet
   facet normal 0.000000e+00 -1.000000e+00 0.000000e+00
      outer loop
         vertex 6.245005e-14 -2.500000e+01 5.000000e+02
         vertex 1.243701e+02 -2.500000e+01 4.524193e+02
         vertex 1.247880e+02 -2.500000e+01 4.524910e+02
      endloop
   endfacet
   facet normal 0.000000e+00 -1.000000e+00 0.000000e+00
      outer loop
         vertex 6.245005e-14 -2.500000e+01 5.000000e+02
         vertex 1.247880e+02 -2.500000e+01 4.524910e+02
         vertex 2.500000e+02 -2.500000e+01 5.000000e+02
      endloop
   endfacet
   facet normal 0.000000e+00 -1.000000e+00 0.000000e+00
      outer loop
         vertex 2.500000e+02 -2.500000e+01 5.000000e+02
         vertex 1.247880e+02 -2.500000e+01 4.524910e+02
         vertex 1.252120e+02 -2.500000e+01 4.524910e+02
      endloop
   endfacet
   facet normal 0.000000e+00 -1.000000e+00 -0.000000e+00
      outer loop
         vertex 1.271288e+02 -2.500000e+01 4.486892e+02
         vertex 1.268767e+02 -2.500000e+01 4.483483e+02
         vertex 2.500000e+02 -2.500000e+01 0.000000e+00
      endloop
   endfacet
   facet normal 0.000000e+00 -1.000000e+00 0.000000e+00
      outer loop
         vertex 1.234294e+02 -2.500000e+01 4.480549e+02
         vertex 1.231233e+02 -2.500000e+01 4.483483e+02
         vertex 6.245005e-14 -2.500000e+01 5.000000e+02
      endloop
   endfacet
   facet normal 0.000000e+00 -1.000000e+00 0.000000e+00
      outer loop
         vertex 6.245005e-14 -2.500000e+01 5.000000e+02
         vertex 1.231233e+02 -2.500000e+01 4.483483e+02
         vertex 1.228712e+02 -2.500000e+01 4.486892e+02
      endloop
   endfacet
   facet normal 0.000000e+00 -1.000000e+00 0.000000e+00
      outer loop
         vertex 1.227677e+02 -2.500000e+01 4.511255e+02
         vertex 1.229900e+02 -2.500000e+01 4.514866e+02
         vertex 6.245005e-14 -2.500000e+01 5.000000e+02
      endloop
   endfacet
   facet normal 0.000000e+00 -1.000000e+00 0.000000e+00
      outer loop
         vertex 6.245005e-14 -2.500000e+01 5.000000e+02
         vertex 1.229900e+02 -2.500000e+01 4.514866e+02
         vertex 1.232702e+02 -2.500000e+01 4.518049e+02
      endloop
   endfacet
   facet normal 0.000000e+00 -1.000000e+00 0.000000e+00
      outer loop
         vertex 6.245005e-14 -2.500000e+01 5.000000e+02
         vertex 1.232702e+02 -2.500000e+01 4.518049e+02
         vertex 1.236001e+02 -2.500000e+01 4.520713e+02
      endloop
   endfacet
   facet normal 0.000000e+00 -1.000000e+00 0.000000e+00
      outer loop
         vertex 1.252120e+02 -2.500000e+01 4.524910e+02
         vertex 1.256299e+02 -2.500000e+01 4.524193e+02
         vertex 2.500000e+02 -2.500000e+01 5.000000e+02
      endloop
   endfacet
   facet normal 0.000000e+00 -1.000000e+00 0.000000e+00
      outer loop
         vertex 2.500000e+02 -2.500000e+01 5.000000e+02
         vertex 1.256299e+02 -2.500000e+01 4.524193e+02
         vertex 1.260298e+02 -2.500000e+01 4.522781e+02
      endloop
   endfacet
   facet normal 0.000000e+00 -1.000000e+00 0.000000e+00
      outer loop
         vertex 2.500000e+02 -2.500000e+01 5.000000e+02
         vertex 1.260298e+02 -2.500000e+01 4.522781e+02
         vertex 1.263999e+02 -2.500000e+01 4.520713e+02
      endloop
   endfacet
   facet normal 0.000000e+00 -1.000000e+00 -0.000000e+00
      outer loop
         vertex 1.250000e+02 -2.500000e+01 4.475000e+02
         vertex 5.551115e-14 -2.500000e+01 0.000000e+00
         vertex 1.254225e+02 -2.500000e+01 4.475360e+02
      endloop
   endfacet
   facet normal 0.000000e+00 -1.000000e+00 -0.000000e+00
      outer loop
         vertex 1.254225e+02 -2.500000e+01 4.475360e+02
         vertex 5.551115e-14 -2.500000e+01 0.000000e+00
         vertex 2.500000e+02 -2.500000e+01 0.000000e+00
      endloop
   endfacet
   facet normal 0.000000e+00 -1.000000e+00 0.000000e+00
      outer loop
         vertex 1.254225e+02 -2.500000e+01 4.475360e+02
         vertex 2.500000e+02 -2.500000e+01 0.000000e+00
         vertex 1.258329e+02 -2.500000e+01 4.476428e+02
      endloop
   endfacet
   facet normal -0.000000e+00 -1.000000e+00 0.000000e+00
      outer loop
         vertex 1.250000e+02 -2.500000e+01 4.475000e+02
         vertex 1.245775e+02 -2.500000e+01 4.475360e+02
         vertex 5.551115e-14 -2.500000e+01 0.000000e+00
      endloop
   endfacet
   facet normal 0.000000e+00 -1.000000e+00 0.000000e+00
      outer loop
         vertex 5.551115e-14 -2.500000e+01 0.000000e+00
         vertex 1.245775e+02 -2.500000e+01 4.475360e+02
         vertex 1.241672e+02 -2.500000e+01 4.476428e+02
      endloop
   endfacet
   facet normal 0.000000e+00 -1.000000e+00 0.000000e+00
      outer loop
         vertex 5.551115e-14 -2.500000e+01 0.000000e+00
         vertex 1.241672e+02 -2.500000e+01 4.476428e+02
         vertex 6.245005e-14 -2.500000e+01 5.000000e+02
      endloop
   endfacet
   facet normal 0.000000e+00 -1.000000e+00 0.000000e+00
      outer loop
         vertex 6.245005e-14 -2.500000e+01 5.000000e+02
         vertex 1.241672e+02 -2.500000e+01 4.476428e+02
         vertex 1.237808e+02 -2.500000e+01 4.478175e+02
      endloop
   endfacet
   facet normal 0.000000e+00 -1.000000e+00 0.000000e+00
      outer loop
         vertex 6.245005e-14 -2.500000e+01 5.000000e+02
         vertex 1.237808e+02 -2.500000e+01 4.478175e+02
         vertex 1.234294e+02 -2.500000e+01 4.480549e+02
      endloop
   endfacet
   facet normal 0.000000e+00 -1.000000e+00 0.000000e+00
      outer loop
         vertex 1.228712e+02 -2.500000e+01 4.486892e+02
         vertex 1.226803e+02 -2.500000e+01 4.490679e+02
         vertex 6.245005e-14 -2.500000e+01 5.000000e+02
      endloop
   endfacet
   facet normal 0.000000e+00 -1.000000e+00 0.000000e+00
      outer loop
         vertex 6.245005e-14 -2.500000e+01 5.000000e+02
         vertex 1.226803e+02 -2.500000e+01 4.490679e+02
         vertex 1.225561e+02 -2.500000e+01 4.494733e+02
      endloop
   endfacet
   facet normal 0.000000e+00 -1.000000e+00 0.000000e+00
      outer loop
         vertex 6.245005e-14 -2.500000e+01 5.000000e+02
         vertex 1.225561e+02 -2.500000e+01 4.494733e+02
         vertex 1.225023e+02 -2.500000e+01 4.498939e+02
      endloop
   endfacet
   facet normal 0.000000e+00 -1.000000e+00 0.000000e+00
      outer loop
         vertex 1.263999e+02 -2.500000e+01 4.520713e+02
         vertex 1.267298e+02 -2.500000e+01 4.518049e+02
         vertex 2.500000e+02 -2.500000e+01 5.000000e+02
      endloop
   endfacet
   facet normal 0.000000e+00 -1.000000e+00 0.000000e+00
      outer loop
         vertex 2.500000e+02 -2.500000e+01 5.000000e+02
         vertex 1.267298e+02 -2.500000e+01 4.518049e+02
         vertex 1.270100e+02 -2.500000e+01 4.514866e+02
      endloop
   endfacet
   facet normal 0.000000e+00 -1.000000e+00 0.000000e+00
      outer loop
         vertex 2.500000e+02 -2.500000e+01 5.000000e+02
         vertex 1.270100e+02 -2.500000e+01 4.514866e+02
         vertex 1.272323e+02 -2.500000e+01 4.511255e+02
      endloop
   endfacet
   facet normal 0.000000e+00 -1.000000e+00 0.000000e+00
      outer loop
         vertex 1.272323e+02 -2.500000e+01 4.511255e+02
         vertex 1.273904e+02 -2.500000e+01 4.507321e+02
         vertex 2.500000e+02 -2.500000e+01 5.000000e+02
      endloop
   endfacet
   facet normal 0.000000e+00 -1.000000e+00 0.000000e+00
      outer loop
         vertex 2.500000e+02 -2.500000e+01 5.000000e+02
         vertex 1.273904e+02 -2.500000e+01 4.507321e+02
         vertex 1.274797e+02 -2.500000e+01 4.503175e+02
      endloop
   endfacet
   facet normal 0.000000e+00 -1.000000e+00 0.000000e+00
      outer loop
         vertex 2.500000e+02 -2.500000e+01 5.000000e+02
         vertex 1.274797e+02 -2.500000e+01 4.503175e+02
         vertex 1.275000e+02 -2.500000e+01 4.500000e+02
      endloop
   endfacet
   facet normal 0.000000e+00 -1.000000e+00 0.000000e+00
      outer loop
         vertex 1.225023e+02 -2.500000e+01 4.498939e+02
         vertex 1.225202e+02 -2.500000e+01 4.503175e+02
         vertex 6.245005e-14 -2.500000e+01 5.000000e+02
      endloop
   endfacet
   facet normal 0.000000e+00 -1.000000e+00 0.000000e+00
      outer loop
         vertex 6.245005e-14 -2.500000e+01 5.000000e+02
         vertex 1.225202e+02 -2.500000e+01 4.503175e+02
         vertex 1.226096e+02 -2.500000e+01 4.507321e+02
      endloop
   endfacet
   facet normal 0.000000e+00 -1.000000e+00 0.000000e+00
      outer loop
         vertex 6.245005e-14 -2.500000e+01 5.000000e+02
         vertex 1.226096e+02 -2.500000e+01 4.507321e+02
         vertex 1.227677e+02 -2.500000e+01 4.511255e+02
      endloop
   endfacet
   facet normal 0.000000e+00 -1.000000e+00 -0.000000e+00
      outer loop
         vertex 1.275000e+02 -2.500000e+01 4.500000e+02
         vertex 1.274977e+02 -2.500000e+01 4.498939e+02
         vertex 2.500000e+02 -2.500000e+01 5.000000e+02
      endloop
   endfacet
   facet normal 0.000000e+00 -1.000000e+00 0.000000e+00
      outer loop
         vertex 2.500000e+02 -2.500000e+01 5.000000e+02
         vertex 1.274977e+02 -2.500000e+01 4.498939e+02
         vertex 1.274439e+02 -2.500000e+01 4.494733e+02
      endloop
   endfacet
   facet normal 0.000000e+00 -1.000000e+00 -0.000000e+00
      outer loop
         vertex 2.500000e+02 -2.500000e+01 5.000000e+02
         vertex 1.274439e+02 -2.500000e+01 4.494733e+02
         vertex 2.500000e+02 -2.500000e+01 0.000000e+00
      endloop
   endfacet
   facet normal 0.000000e+00 -1.000000e+00 0.000000e+00
      outer loop
         vertex 2.500000e+02 -2.500000e+01 0.000000e+00
         vertex 1.274439e+02 -2.500000e+01 4.494733e+02
         vertex 1.273197e+02 -2.500000e+01 4.490679e+02
      endloop
   endfacet
   facet normal 0.000000e+00 -1.000000e+00 0.000000e+00
      outer loop
         vertex 2.500000e+02 -2.500000e+01 0.000000e+00
         vertex 1.273197e+02 -2.500000e+01 4.490679e+02
         vertex 1.271288e+02 -2.500000e+01 4.486892e+02
      endloop
   endfacet
   facet normal 0.000000e+00 -1.000000e+00 -0.000000e+00
      outer loop
         vertex 1.268767e+02 -2.500000e+01 4.483483e+02
         vertex 1.265706e+02 -2.500000e+01 4.480549e+02
         vertex 2.500000e+02 -2.500000e+01 0.000000e+00
      endloop
   endfacet
   facet normal 0.000000e+00 -1.000000e+00 0.000000e+00
      outer loop
         vertex 2.500000e+02 -2.500000e+01 0.000000e+00
         vertex 1.265706e+02 -2.500000e+01 4.480549e+02
         vertex 1.262192e+02 -2.500000e+01 4.478175e+02
      endloop
   endfacet
   facet normal 0.000000e+00 -1.000000e+00 0.000000e+00
      outer loop
         vertex 2.500000e+02 -2.500000e+01 0.000000e+00
         vertex 1.262192e+02 -2.500000e+01 4.478175e+02
         vertex 1.258329e+02 -2.500000e+01 4.476428e+02
      endloop
   endfacet
   facet normal 0.000000e+00 0.000000e+00 1.000000e+00
      outer loop
         vertex 6.245005e-14 -2.500000e+01 5.000000e+02
         vertex 2.500000e+02 -2.500000e+01 5.000000e+02
         vertex 6.245005e-14 0.000000e+00 5.000000e+02
      endloop
   endfacet
   facet normal -0.000000e+00 0.000000e+00 1.000000e+00
      outer loop
         vertex 6.245005e-14 0.000000e+00 5.000000e+02
         vertex 2.500000e+02 -2.500000e+01 5.000000e+02
         vertex 2.500000e+02 0.000000e+00 5.000000e+02
      endloop
   endfacet
   facet normal -1.000000e+00 0.000000e+00 1.387779e-17
      outer loop
         vertex 5.551115e-14 -2.500000e+01 0.000000e+00
         vertex 6.245005e-14 -2.500000e+01 5.000000e+02
         vertex 5.551115e-14 0.000000e+00 0.000000e+00
      endloop
   endfacet
   facet normal -1.000000e+00 0.000000e+00 1.387779e-17
      outer loop
         vertex 5.551115e-14 0.000000e+00 0.000000e+00
         vertex 6.245005e-14 -2.500000e+01 5.000000e+02
         vertex 6.245005e-14 0.000000e+00 5.000000e+02
      endloop
   endfacet
   facet normal 0.000000e+00 0.000000e+00 -1.000000e+00
      outer loop
         vertex 2.500000e+02 -2.500000e+01 0.000000e+00
         vertex 5.551115e-14 -2.500000e+01 0.000000e+00
         vertex 2.500000e+02 0.000000e+00 0.000000e+00
      endloop
   endfacet
   facet normal -0.000000e+00 0.000000e+00 -1.000000e+00
      outer loop
         vertex 2.500000e+02 0.000000e+00 0.000000e+00
         vertex 5.551115e-14 -2.500000e+01 0.000000e+00
         vertex 5.551115e-14 0.000000e+00 0.000000e+00
      endloop
   endfacet
   facet normal 1.000000e+00 -0.000000e+00 0.000000e+00
      outer loop
         vertex 2.500000e+02 -2.500000e+01 5.000000e+02
         vertex 2.500000e+02 -2.500000e+01 0.000000e+00
         vertex 2.500000e+02 0.000000e+00 5.000000e+02
      endloop
   endfacet
   facet normal 1.000000e+00 0.000000e+00 0.000000e+00
      outer loop
         vertex 2.500000e+02 0.000000e+00 5.000000e+02
         vertex 2.500000e+02 -2.500000e+01 0.000000e+00
         vertex 2.500000e+02 0.000000e+00 0.000000e+00
      endloop
   endfacet
endsolid